# xmcd
#
# Track frame offsets: 
#        150
#        9649
#        38019
#        49370
#        77721
#        93766
#        107489
#        120612
#        152227
#        208371
#        218792
#        249674
#        281679
#        305713
#
# Disc length: 4268 seconds
#
# Revision: 0
# Processed by: cddbd v1.5.2PL0 Copyright (c) Steve Scherf et al.
# Submitted via: ExactAudioCopy v1.0b3
#
DISCID=c410aa0e
DTITLE=Barn - Barnklassiker vi minns 1939-56 [CD 1]
DYEAR=2008
DGENRE=
TTITLE0=Jag heter Pippi Långstrump
TTITLE1=Polisjakten ur Pippi Långstrump
TTITLE2=Nyfiken i en strut
TTITLE3=Pelle Svanslös i skolan
TTITLE4=Leksaksbilen
TTITLE5=Familjen Tuff-tuff och glasögonormen
TTITLE6=På låssas
TTITLE7=Kalle Stråpps födelsedag
TTITLE8=Askungen
TTITLE9=Droppen Dripp och Droppen Drapp
TTITLE10=Morfar Ginko som brandsoldat
TTITLE11=Det var så roligt, jag måste skratta
TTITLE12=Bockarna Bruse
TTITLE13=Läggdags
EXTD=
EXTT0=
EXTT1=
EXTT2=
EXTT3=
EXTT4=
EXTT5=
EXTT6=
EXTT7=
EXTT8=
EXTT9=
EXTT10=
EXTT11=
EXTT12=
EXTT13=
PLAYORDER=
